HIERARCHY
ROOT Hips
{
  OFFSET 56.5245 85.8259 14.4053
  CHANNELS 6 Xposition Yposition Zposition Zrotation Xrotation Yrotation
  JOINT spine
  {
    OFFSET 0 6.3926 0.367606
    CHANNELS 3 Zrotation Xrotation Yrotation
    JOINT spine1
    {
      OFFSET 0 9.17611 0
      CHANNELS 3 Zrotation Xrotation Yrotation
      JOINT spine2
      {
        OFFSET 0 8.79238 0
        CHANNELS 3 Zrotation Xrotation Yrotation
        JOINT Neck
        {
          OFFSET 0 22.5737 1.07624
          CHANNELS 3 Zrotation Xrotation Yrotation
          JOINT Head
          {
            OFFSET 0 6.82011 0
            CHANNELS 3 Zrotation Xrotation Yrotation
            End Site
            {
              OFFSET 0 16.5085 -5.44427
            }
          }
        }
        JOINT RightShoulder
        {
          OFFSET -3.70221 9.49509 -0.515508
          CHANNELS 3 Zrotation Xrotation Yrotation
          JOINT RightArm
          {
            OFFSET 0 12.4537 0
            CHANNELS 3 Zrotation Xrotation Yrotation
            JOINT RightArmRoll
            {
              OFFSET 0 6.28686 0
              CHANNELS 3 Zrotation Xrotation Yrotation
              JOINT RightForeArm
              {
                OFFSET 0 18.3114 0
                CHANNELS 3 Zrotation Xrotation Yrotation
                JOINT RightForeArmRoll
                {
                  OFFSET 0 7.05482 0
                  CHANNELS 3 Zrotation Xrotation Yrotation
                  JOINT RightHand
                  {
                    OFFSET 0 14.1575 0
                    CHANNELS 3 Zrotation Xrotation Yrotation
                    End Site
                    {
                      OFFSET 0 0 0
                    }
                  }
                }
              }
            }
          }
        }
        JOINT LeftShoulder
        {
          OFFSET 3.70221 9.49509 -0.515508
          CHANNELS 3 Zrotation Xrotation Yrotation
          JOINT LeftArm
          {
            OFFSET 0 12.4537 0
            CHANNELS 3 Zrotation Xrotation Yrotation
            JOINT LeftArmRoll
            {
              OFFSET 0 6.28686 0
              CHANNELS 3 Zrotation Xrotation Yrotation
              JOINT LeftForeArm
              {
                OFFSET 0 18.3114 0
                CHANNELS 3 Zrotation Xrotation Yrotation
                JOINT LeftForeArmRoll
                {
                  OFFSET 0 7.05483 0
                  CHANNELS 3 Zrotation Xrotation Yrotation
                  JOINT LeftHand
                  {
                    OFFSET 0 14.1575 0
                    CHANNELS 3 Zrotation Xrotation Yrotation
                    End Site
                    {
                      OFFSET 0 0 0
                    }
                  }
                }
              }
            }
          }
        }
      }
    }
  }
  JOINT RightUpLeg
  {
    OFFSET -5.66616 -1.03903 -0.87161
    CHANNELS 3 Zrotation Xrotation Yrotation
    JOINT RightUpLegRoll
    {
      OFFSET 0 16.6005 0
      CHANNELS 3 Zrotation Xrotation Yrotation
      JOINT RightLeg
      {
        OFFSET 0 -20.5572 0
        CHANNELS 3 Zrotation Xrotation Yrotation
        JOINT RightLegRoll
        {
          OFFSET 0 20.6244 0
          CHANNELS 3 Zrotation Xrotation Yrotation
          JOINT RightFoot
          {
            OFFSET 0 17.1664 0
            CHANNELS 3 Zrotation Xrotation Yrotation
            JOINT RightToeBase
            {
              OFFSET 0 14.3502 0
              CHANNELS 3 Zrotation Xrotation Yrotation
              End Site
              {
                OFFSET 0.00608252 6.94971 -0.801061
              }
            }
          }
        }
      }
    }
  }
  JOINT LeftUpLeg
  {
    OFFSET 5.66616 -1.03903 -0.87161
    CHANNELS 3 Zrotation Xrotation Yrotation
    JOINT LeftUpLegRoll
    {
      OFFSET 0 16.6006 0
      CHANNELS 3 Zrotation Xrotation Yrotation
      JOINT LeftLeg
      {
        OFFSET 0 20.5571 0
        CHANNELS 3 Zrotation Xrotation Yrotation
        JOINT LeftLegRoll
        {
          OFFSET 0 20.8151 0
          CHANNELS 3 Zrotation Xrotation Yrotation
          JOINT LeftFoot
          {
            OFFSET 0 16.9757 0
            CHANNELS 3 Zrotation Xrotation Yrotation
            JOINT LeftToeBase
            {
              OFFSET 0 14.3502 0
              CHANNELS 3 Zrotation Xrotation Yrotation
              End Site
              {
                OFFSET -0.0272592 6.94971 -0.801061
              }
            }
          }
        }
      }
    }
  }
}
MOTION
Frames: 12
Frame Time: 0.00208333
56.0291 85.6103 14.8912 -0.579675 -2.10091 -0.148429 -0.161768 -1.50673 -0.270235 -0.306184 0.990764 -0.524046 -0.300148 2.6358 -0.519312 -2.39852 10.6685 0.482377 2.34752 9.15951 -0.223265 26.3325 -15.5207 -12.3787 68.663 37.5351 63.3784 1.32411e-006 -7.65389e-008 -4.23254e-006 -10.5734 44.9388 6.97018 1.37261e-006 -4.91849e-006 -3.00841 8.0289 -4.95145 0.697701 -18.7472 -18.3933 17.0584 -66.7608 37.6367 -53.208 2.28239e-005 -3.87104e-006 4.51668e-006 17.796 35.1261 -9.50619 3.45338e-006 4.00189e-006 3.01001 -8.0291 -4.95145 -0.697676 175.02 -0.327346 1.24445 180 7.01547e-015 178.921 176.512 5.4755 179.792 -3.89279e-006 3.13346e-006 0.0447429 -18.3418 67.6208 19.2233 8.13649 25.2327 -3.48774 -175.21 -1.30501 0.555524 4.54188e-006 -4.6773e-006 -1.07406 -1.18453 -6.90605 0.426808 -3.25841e-006 3.62992e-006 -0.098806 19.2723 69.4483 -20.793 -8.1365 25.2328 3.48759 
56.0288 85.6129 14.8884 -0.575474 -2.10645 -0.144869 -0.161864 -1.50391 -0.269683 -0.307017 0.996466 -0.523744 -0.300987 2.6415 -0.518998 -2.37582 10.6765 0.480958 2.30915 9.13784 -0.21773 26.423 -15.5132 -12.3605 68.7881 37.4409 63.1533 1.32411e-006 -7.65388e-008 -4.23254e-006 -10.6293 44.4075 6.89888 1.37261e-006 -4.91849e-006 -3.00841 8.0289 -4.95145 0.697701 -18.8328 -18.3866 17.0333 -66.9159 37.5206 -52.8294 2.28239e-005 -3.87104e-006 4.51668e-006 17.6631 34.4959 -9.25472 3.45338e-006 4.00189e-006 3.01 -8.0291 -4.95145 -0.697676 175.015 -0.333607 1.24714 180 7.01547e-015 178.921 176.513 5.47576 179.792 -3.89279e-006 3.13346e-006 0.0447445 -18.3418 67.6206 19.2232 8.13649 25.2327 -3.48774 -175.213 -1.3117 0.556438 4.54188e-006 -4.6773e-006 -1.07413 -1.18538 -6.90044 0.42639 -3.25841e-006 3.62992e-006 -0.0983192 19.27 69.4441 -20.7892 -8.1365 25.2328 3.48759 
56.0276 85.6126 14.8801 -0.572276 -2.11303 -0.14115 -0.161801 -1.50081 -0.269173 -0.307566 1.0027 -0.52341 -0.301542 2.64774 -0.518656 -2.35306 10.6827 0.479361 2.27238 9.11803 -0.212359 26.5145 -15.5061 -12.3429 68.9145 37.3485 62.9308 1.32411e-006 -7.65389e-008 -4.23254e-006 -10.6844 43.8824 6.82819 1.37261e-006 -4.91849e-006 -3.00841 8.0289 -4.95145 0.697701 -18.9168 -18.3796 17.0082 -67.0728 37.4052 -52.4481 2.28239e-005 -3.87104e-006 4.51668e-006 17.5265 33.8645 -9.00508 3.45338e-006 4.00189e-006 3.01 -8.0291 -4.95145 -0.697676 175.012 -0.341146 1.24897 180 7.01546e-015 178.921 176.514 5.47598 179.792 -3.89279e-006 3.13346e-006 0.0447461 -18.3417 67.6206 19.2231 8.13649 25.2327 -3.48774 -175.215 -1.31794 0.556073 4.54188e-006 -4.6773e-006 -1.07419 -1.18671 -6.89831 0.426042 -3.25841e-006 3.62992e-006 -0.0978599 19.2681 69.4418 -20.787 -8.1365 25.2328 3.48759 
56.0258 85.614 14.8811 -0.570283 -2.12079 -0.137259 -0.161542 -1.49741 -0.268717 -0.307746 1.00954 -0.523038 -0.301727 2.65457 -0.518281 -2.33046 10.6869 0.477609 2.23764 9.1004 -0.207201 26.6071 -15.4996 -12.3258 69.0424 37.2581 62.7116 1.32411e-006 -7.65388e-008 -4.23254e-006 -10.7388 43.3651 6.75835 1.37261e-006 -4.91849e-006 -3.00841 8.0289 -4.95145 0.697701 -18.9991 -18.3722 16.983 -67.2317 37.2903 -52.0643 2.28239e-005 -3.87104e-006 4.51668e-006 17.3857 33.2327 -8.75745 3.45338e-006 4.00189e-006 3.01 -8.0291 -4.95145 -0.697676 175.01 -0.350119 1.2498 180 7.01546e-015 178.921 176.515 5.4761 179.792 -3.89279e-006 3.13346e-006 0.0447477 -18.3415 67.6208 19.2232 8.13649 25.2327 -3.48774 -175.215 -1.32364 0.554245 4.54188e-006 -4.6773e-006 -1.07425 -1.18856 -6.90021 0.425784 -3.25841e-006 3.62992e-006 -0.0974352 19.2668 69.4415 -20.7867 -8.1365 25.2328 3.48759 
56.0319 85.6161 14.8911 -0.569694 -2.12984 -0.133178 -0.161052 -1.49367 -0.268327 -0.30747 1.01705 -0.522621 -0.301457 2.66208 -0.517868 -2.30824 10.6889 0.475727 2.20537 9.08527 -0.202306 26.701 -15.4939 -12.3095 69.1721 37.1702 62.4963 1.32411e-006 -7.65388e-008 -4.23254e-006 -10.7924 42.8571 6.68956 1.37261e-006 -4.91849e-006 -3.00841 8.0289 -4.95145 0.697701 -19.0798 -18.3644 16.9575 -67.3925 37.1759 -51.6779 2.28239e-005 -3.87104e-006 4.51668e-006 17.2401 32.6012 -8.51202 3.45338e-006 4.00189e-006 3.00999 -8.0291 -4.95145 -0.697676 175.01 -0.36068 1.24948 180 7.01546e-015 178.921 176.517 5.47616 179.792 -3.89279e-006 3.13346e-006 0.0447494 -18.3412 67.621 19.2234 8.13649 25.2327 -3.48774 -175.213 -1.32868 0.550773 4.54188e-006 -4.6773e-006 -1.07431 -1.19098 -6.90666 0.425638 -3.25841e-006 3.62992e-006 -0.0970519 19.266 69.4436 -20.7884 -8.1365 25.2328 3.48759 
56.0282 85.6137 14.8883 -0.570714 -2.14034 -0.128894 -0.160292 -1.48955 -0.268015 -0.306653 1.02529 -0.522152 -0.300645 2.67032 -0.517411 -2.28664 10.6882 0.473737 2.17599 9.07297 -0.197721 26.7963 -15.489 -12.2941 69.304 37.0852 62.2855 1.32411e-006 -7.65389e-008 -4.23254e-006 -10.8452 42.36 6.62201 1.37261e-006 -4.91849e-006 -3.00841 8.0289 -4.95145 0.697701 -19.1589 -18.3561 16.9316 -67.5552 37.062 -51.2891 2.28239e-005 -3.87104e-006 4.51668e-006 17.0891 31.9708 -8.26895 3.45338e-006 4.00189e-006 3.00999 -8.0291 -4.95145 -0.697676 175.013 -0.372987 1.24785 180 7.01546e-015 178.921 176.52 5.47611 179.792 -3.89279e-006 3.13346e-006 0.044751 -18.3408 67.6214 19.2237 8.13649 25.2327 -3.48774 -175.209 -1.33299 0.545471 4.54188e-006 -4.6773e-006 -1.07437 -1.19399 -6.9182 0.425624 -3.25841e-006 3.62992e-006 -0.0967172 19.2659 69.4483 -20.7926 -8.1365 25.2328 3.48759 
56.036 85.6051 14.876 -0.573676 -2.15324 -0.124174 -0.159218 -1.48482 -0.267736 -0.305289 1.03475 -0.521542 -0.299288 2.67978 -0.516821 -2.26488 10.6842 0.471228 2.14963 9.06417 -0.193611 26.8932 -15.4855 -12.2802 69.4379 37.0033 62.0795 1.32411e-006 -7.65388e-008 -4.23254e-006 -10.8977 41.874 6.55551 1.37261e-006 -4.91849e-006 -3.00841 8.0289 -4.95145 0.697701 -19.2351 -18.3472 16.9056 -67.7211 36.9489 -50.8968 2.28239e-005 -3.87104e-006 4.51668e-006 16.9334 31.3374 -8.0254 3.45338e-006 4.00189e-006 3.00999 -8.0291 -4.95145 -0.697676 175.018 -0.388251 1.24459 180 7.01546e-015 178.921 176.524 5.47598 179.791 -3.89279e-006 3.13346e-006 0.0447526 -18.3402 67.6219 19.2242 8.13649 25.2327 -3.48774 -175.202 -1.33679 0.537148 4.54188e-006 -4.6773e-006 -1.07442 -1.19849 -6.93672 0.425685 -3.25841e-006 3.62992e-006 -0.0964261 19.267 69.4566 -20.8001 -8.1365 25.2328 3.48759 
56.0341 85.6023 14.8794 -0.578593 -2.1691 -0.118868 -0.157841 -1.47932 -0.267443 -0.303476 1.04572 -0.520732 -0.297483 2.69075 -0.516037 -2.24213 10.6764 0.467869 2.12589 9.05898 -0.190041 26.9916 -15.4837 -12.268 69.5733 36.9245 61.8778 1.32411e-006 -7.65388e-008 -4.23254e-006 -10.9502 41.3976 6.48956 1.37261e-006 -4.91849e-006 -3.00841 8.0289 -4.95145 0.697701 -19.3072 -18.338 16.8799 -67.8913 36.8369 -50.4998 2.28239e-005 -3.87104e-006 4.51668e-006 16.7741 30.6973 -7.77904 3.45338e-006 4.00189e-006 3.00999 -8.0291 -4.95145 -0.697676 175.025 -0.407179 1.23965 180 7.01546e-015 178.921 176.529 5.47573 179.791 -3.89279e-006 3.13346e-006 0.0447542 -18.3393 67.6227 19.2249 8.13649 25.2327 -3.48774 -175.192 -1.34036 0.525139 4.54188e-006 -4.6773e-006 -1.07448 -1.20511 -6.96299 0.425751 -3.25841e-006 3.62992e-006 -0.0961667 19.2698 69.469 -20.8112 -8.1365 25.2328 3.48759 
56.0351 85.6115 14.8829 -0.585181 -2.18743 -0.113077 -0.156205 -1.47318 -0.267146 -0.301279 1.05795 -0.519763 -0.295293 2.70299 -0.515098 -2.21855 10.6653 0.463807 2.10441 9.0569 -0.186909 27.0914 -15.4833 -12.2573 69.7102 36.8485 61.6796 1.32411e-006 -7.65389e-008 -4.23254e-006 -11.0022 40.9294 6.42394 1.37261e-006 -4.91849e-006 -3.00841 8.0289 -4.95145 0.697701 -19.3758 -18.3285 16.8546 -68.065 36.7256 -50.0984 2.28239e-005 -3.87104e-006 4.51668e-006 16.6115 30.0516 -7.53075 3.45338e-006 4.00189e-006 3.00998 -8.0291 -4.95145 -0.697676 175.035 -0.429174 1.23326 180 7.01546e-015 178.921 176.535 5.4754 179.79 -3.89279e-006 3.13346e-006 0.0447558 -18.3383 67.6237 19.2257 8.13649 25.2327 -3.48774 -175.178 -1.34368 0.510057 4.54188e-006 -4.6773e-006 -1.07453 -1.21346 -6.99586 0.42583 -3.25841e-006 3.62992e-006 -0.0959359 19.2738 69.4848 -20.8255 -8.1365 25.2328 3.48759 
56.0347 85.6089 14.8808 -0.593158 -2.20775 -0.106907 -0.154355 -1.46653 -0.266853 -0.298762 1.0712 -0.518676 -0.292786 2.71624 -0.514045 -2.19426 10.6515 0.459192 2.0848 9.05743 -0.184114 27.1925 -15.484 -12.2477 69.8487 36.7751 61.4842 1.32411e-006 -7.65389e-008 -4.23254e-006 -11.0537 40.4683 6.35841 1.37261e-006 -4.91849e-006 -3.00842 8.0289 -4.95145 0.697701 -19.4415 -18.3187 16.8295 -68.2417 36.6148 -49.693 2.28239e-005 -3.87104e-006 4.51668e-006 16.4457 29.4013 -7.2814 3.45338e-006 4.00189e-006 3.00998 -8.0291 -4.95145 -0.697676 175.047 -0.453636 1.22567 180 7.01546e-015 178.92 176.542 5.475 179.79 -3.89279e-006 3.13346e-006 0.0447574 -18.3371 67.6249 19.2268 8.13649 25.2327 -3.48774 -175.163 -1.34672 0.492513 4.54188e-006 -4.6773e-006 -1.07459 -1.22315 -7.03418 0.425932 -3.25841e-006 3.62992e-006 -0.0957306 19.279 69.5035 -20.8424 -8.1365 25.2328 3.48759 
56.0354 85.6109 14.8931 -0.60224 -2.22957 -0.100461 -0.152335 -1.45948 -0.266573 -0.29599 1.08523 -0.517511 -0.290023 2.73026 -0.512918 -2.16943 10.6356 0.45417 2.06671 9.06006 -0.181552 27.2946 -15.4855 -12.2388 69.9885 36.7038 61.291 1.32411e-006 -7.65388e-008 -4.23254e-006 -11.1041 40.0131 6.29276 1.37261e-006 -4.91849e-006 -3.00842 8.0289 -4.95145 0.697701 -19.5046 -18.3087 16.8046 -68.421 36.5043 -49.2839 2.28239e-005 -3.87104e-006 4.51668e-006 16.277 28.7475 -7.03178 3.45338e-006 4.00189e-006 3.00998 -8.0291 -4.95145 -0.697676 175.061 -0.479967 1.21712 180 7.01546e-015 178.92 176.549 5.47454 179.789 -3.89279e-006 3.13346e-006 0.044759 -18.3358 67.6262 19.2279 8.13649 25.2327 -3.48774 -175.145 -1.34946 0.473118 4.54188e-006 -4.6773e-006 -1.07465 -1.2338 -7.0768 0.426065 -3.25841e-006 3.62992e-006 -0.0955477 19.2849 69.5244 -20.8614 -8.1365 25.2328 3.48759 
56.038 85.6119 14.8891 -0.612144 -2.25242 -0.0938424 -0.150191 -1.45217 -0.266317 -0.293029 1.09978 -0.51631 -0.287072 2.74482 -0.511756 -2.14419 10.618 0.44889 2.04976 9.06429 -0.179124 27.3976 -15.4873 -12.2304 70.1296 36.6343 61.0993 1.32411e-006 -7.65388e-008 -4.23254e-006 -11.1535 39.5625 6.2268 1.37261e-006 -4.91849e-006 -3.00842 8.0289 -4.95145 0.697701 -19.5659 -18.2984 16.7798 -68.6022 36.3937 -48.8714 2.28239e-005 -3.87104e-006 4.51668e-006 16.1053 28.0912 -6.78265 3.45338e-006 4.00189e-006 3.00998 -8.0291 -4.95145 -0.697676 175.075 -0.507567 1.20785 180 7.01546e-015 178.92 176.557 5.47402 179.788 -3.89279e-006 3.13346e-006 0.0447607 -18.3344 67.6275 19.2291 8.13649 25.2327 -3.48774 -175.126 -1.35188 0.452485 4.54188e-006 -4.6773e-006 -1.07472 -1.24502 -7.12258 0.426236 -3.25841e-006 3.62992e-006 -0.095384 19.2914 69.547 -20.8819 -8.1365 25.2328 3.48759 
